<?xml version="1.0" encoding="UTF-8" standalone="no"?>
<!DOCTYPE svg PUBLIC "-//W3C//DTD SVG 1.1//EN" "http://www.w3.org/Graphics/SVG/1.1/DTD/svg11.dtd">
<svg width="100%" height="100%" viewBox="0 0 1420 512" version="1.1" xmlns="http://www.w3.org/2000/svg" xmlns:xlink="http://www.w3.org/1999/xlink" xml:space="preserve" xmlns:serif="http://www.serif.com/" style="fill-rule:evenodd;clip-rule:evenodd;stroke-linejoin:round;stroke-miterlimit:2;">
    <g transform="matrix(1,0,0,1,-1114,0)">
        <g id="Artboard1" transform="matrix(1.10938,0,0,0.64,1114,0)">
            <rect x="0" y="0" width="1280" height="800" style="fill:none;"/>
            <g transform="matrix(1.02725,0,0,1.02725,-35.749,-26.9524)">
                <path d="M678.988,550.032L664.1,622.422L688.784,622.422L688.784,633.261L638.43,633.261L638.43,622.422L653.898,622.422L674.727,525.151C673.97,517.782 673.591,510.125 673.591,502.181C673.591,480.012 676.513,460.116 682.355,442.493C686.881,428.842 692.69,417.392 699.783,408.142L737.821,230.506L764.807,230.506L847.743,622.422L862.882,622.422L862.882,622.993L869.793,622.993L869.793,371.984L850.705,371.984L850.705,361.715L869.793,361.715L869.793,334.903C869.793,255.607 888.223,192.284 928.374,192.284C959.969,192.284 973.133,225.942 973.133,254.466C973.133,289.265 960.956,304.097 945.817,304.097C928.374,304.097 919.817,284.13 919.817,259.6C919.817,255.607 919.817,251.613 920.146,247.62L932.653,244.197C938.247,221.378 935.285,203.693 919.817,203.693C909.615,203.693 900.071,214.532 900.071,239.633C900.071,248.191 901.387,259.03 904.678,270.439L931.007,361.715L973.133,361.715L973.133,288.124L1034.35,261.882L1034.35,361.715L1149.21,361.715L1149.21,416.481C1155.13,375.977 1173.56,356.01 1193.31,356.01C1212.72,356.01 1228.19,373.695 1228.19,417.051C1228.19,449.568 1218.32,471.246 1200.55,471.246C1178.5,471.246 1167.96,447.286 1174.88,406.783L1186.72,406.783C1193.31,383.393 1186.72,377.688 1179.81,377.688C1164.02,377.688 1149.21,418.763 1149.21,470.105L1149.21,622.993L1172.57,622.993L1172.57,633.261L1069.89,633.261L1069.89,622.993L1087.99,622.993L1087.99,371.984L1034.35,371.984L1034.35,564.234C1034.35,597.892 1037.31,616.147 1048.83,616.147C1064.62,616.147 1074.5,591.046 1077.46,552.254L1083.06,553.395C1080.09,597.892 1069.23,638.966 1029.08,638.966C996.5,638.966 973.133,622.422 973.133,551.683L973.133,371.984L931.007,371.984L931.007,622.993L966.551,622.993L966.551,633.261L755.263,633.261L755.263,622.422L778.63,622.422L775.367,605.686C773.896,607.035 772.381,608.298 770.822,609.476C761.851,616.254 752.213,619.644 741.908,619.644C728.935,619.644 717.296,614.54 706.991,604.333C696.686,594.125 688.543,580.13 682.562,562.348C681.22,558.357 680.029,554.252 678.988,550.032ZM769.524,575.717L757.658,514.86L693.379,514.86C694.196,526.596 696.088,537.202 699.055,546.678C703.149,559.756 708.923,569.923 716.376,577.18C723.828,584.437 732.477,588.065 742.322,588.065C750.143,588.065 757.365,585.593 763.99,580.649C765.921,579.208 767.765,577.564 769.524,575.717ZM738.5,416.321C729.67,416.644 721.905,420.185 715.202,426.942C708.164,434.04 702.689,443.888 698.779,456.488C698.637,456.945 698.498,457.405 698.361,457.869L694.365,477.174C693.974,480.156 693.662,483.229 693.429,486.392L751.923,486.392L738.5,416.321ZM732.663,385.853L723.34,337.185L711.128,396.185C717.82,390.65 724.998,387.206 732.663,385.853ZM106.91,576.74L106.91,614.859L87.45,614.859L87.45,276.107L106.91,276.107L106.91,427.787C107.395,426.487 107.901,425.209 108.428,423.952C113.581,411.672 120.159,402.142 128.164,395.364C136.169,388.586 144.956,385.197 154.524,385.197C166.578,385.197 177.389,390.38 186.958,400.747C196.526,411.113 204.094,425.148 209.661,442.851C215.227,460.555 218.01,480.57 218.01,502.899C218.01,524.908 215.25,544.724 209.73,562.348C204.209,579.971 196.641,593.926 187.027,604.213C177.412,614.5 166.578,619.644 154.524,619.644C144.68,619.644 135.778,616.175 127.819,609.237C119.86,602.299 113.351,592.65 108.29,580.29C107.812,579.123 107.352,577.94 106.91,576.74ZM151.212,587.826C160.413,587.826 168.51,584.197 175.502,576.941C182.495,569.684 187.993,559.596 191.995,546.678C195.997,533.759 197.999,519.007 197.999,502.42C197.999,485.674 195.997,470.881 191.995,458.043C187.993,445.204 182.518,435.156 175.571,427.899C168.625,420.643 160.643,417.014 151.626,417.014C142.609,417.014 134.651,420.643 127.75,427.899C120.849,435.156 115.467,445.204 111.602,458.043C107.738,470.881 105.806,485.754 105.806,502.659C105.806,519.246 107.715,533.959 111.533,546.798C115.352,559.636 120.688,569.684 127.543,576.941C134.398,584.197 142.287,587.826 151.212,587.826ZM246.493,514.86C247.31,526.596 249.202,537.202 252.169,546.678C256.263,559.756 262.037,569.923 269.489,577.18C276.942,584.437 285.591,588.065 295.436,588.065C303.257,588.065 310.479,585.593 317.104,580.649C323.728,575.705 329.341,568.368 333.941,558.639L346.501,580.649C340.428,593.089 332.906,602.698 323.935,609.476C314.965,616.254 305.327,619.644 295.022,619.644C282.049,619.644 270.409,614.54 260.104,604.333C249.799,594.125 241.657,580.13 235.676,562.348C229.696,544.565 226.705,524.509 226.705,502.181C226.705,480.012 229.627,460.116 235.469,442.493C241.312,424.869 249.293,410.914 259.414,400.627C269.535,390.34 280.852,385.197 293.366,385.197C305.235,385.197 315.724,389.862 324.833,399.192C333.941,408.522 341.095,421.4 346.294,437.828C351.492,454.255 354.091,473.074 354.091,494.286C354.091,496.838 353.999,499.789 353.815,503.138C353.631,506.487 353.309,510.394 352.849,514.86L246.493,514.86ZM246.543,486.392L335.191,486.392C334.73,474.25 333.163,463.485 330.491,454.095C327.087,442.134 322.21,432.844 315.862,426.225C309.513,419.606 301.876,416.297 292.952,416.297C283.567,416.297 275.355,419.845 268.316,426.942C261.278,434.04 255.803,443.888 251.893,456.488C249.142,465.351 247.359,475.319 246.543,486.392ZM382.936,420.364L350.227,420.364L350.227,389.981L382.936,389.981L382.936,351.943C382.936,336.154 384.914,322.239 388.871,310.197C392.827,298.156 398.324,288.707 405.363,281.849C412.402,274.991 420.476,271.562 429.584,271.562C436.577,271.562 442.742,273.675 448.078,277.901C453.415,282.128 458.245,288.148 462.57,295.963L449.872,317.973C447.02,312.869 443.961,309.081 440.694,306.609C437.428,304.137 433.679,302.901 429.446,302.901C420.89,302.901 414.242,307.327 409.504,316.178C404.765,325.03 402.396,337.191 402.396,352.661L402.396,389.981L445.87,389.981L445.87,420.364L402.396,420.364L402.396,614.859L382.936,614.859L382.936,420.364ZM507.424,619.644C494.819,619.644 483.433,614.42 473.266,603.974C463.099,593.527 455.025,579.373 449.044,561.51C443.064,543.648 440.073,523.712 440.073,501.702C440.073,479.853 443.064,460.156 449.044,442.612C455.025,425.069 463.099,411.113 473.266,400.747C483.433,390.38 494.819,385.197 507.424,385.197C520.029,385.197 531.415,390.34 541.582,400.627C551.749,410.914 559.823,424.869 565.803,442.493C571.784,460.116 574.774,479.853 574.774,501.702C574.774,523.871 571.784,543.847 565.803,561.63C559.823,579.413 551.749,593.527 541.582,603.974C531.415,614.42 520.029,619.644 507.424,619.644ZM507.424,587.347C516.533,587.347 524.652,583.639 531.783,576.223C538.914,568.807 544.526,558.6 548.621,545.601C552.715,532.603 554.762,517.89 554.762,501.463C554.762,485.355 552.692,471.001 548.552,458.401C544.411,445.802 538.799,435.834 531.714,428.497C524.629,421.161 516.533,417.493 507.424,417.493C498.407,417.493 490.31,421.161 483.134,428.497C475.957,435.834 470.321,445.802 466.227,458.401C462.133,471.001 460.085,485.435 460.085,501.702C460.085,518.13 462.133,532.802 466.227,545.721C470.321,558.639 475.957,568.807 483.134,576.223C490.31,583.639 498.407,587.347 507.424,587.347ZM610.934,483.76L610.934,614.859L591.474,614.859L591.474,389.981L610.934,389.981L610.934,419.418C612.097,416.118 613.385,413.004 614.798,410.077C622.803,393.49 633.798,385.197 647.783,385.197C654.224,385.197 660.135,387.19 665.518,391.177C670.9,395.165 675.892,401.544 680.492,410.316L667.657,433.521C664.529,427.62 661.101,423.394 657.375,420.842C653.649,418.29 649.347,417.014 644.471,417.014C634.626,417.014 626.575,422.636 620.318,433.88C614.062,445.124 610.934,461.751 610.934,483.76Z" style="fill:white;"/>
            </g>
        </g>
    </g>
</svg>
