<?xml version="1.0" encoding="UTF-8" standalone="no"?>
<!DOCTYPE svg PUBLIC "-//W3C//DTD SVG 1.1//EN" "http://www.w3.org/Graphics/SVG/1.1/DTD/svg11.dtd">
<svg width="100%" height="100%" viewBox="0 0 1420 512" version="1.1" xmlns="http://www.w3.org/2000/svg" xmlns:xlink="http://www.w3.org/1999/xlink" xml:space="preserve" xmlns:serif="http://www.serif.com/" style="fill-rule:evenodd;clip-rule:evenodd;stroke-linejoin:round;stroke-miterlimit:2;">
    <g transform="matrix(1,0,0,1,-1114,0)">
        <g id="Artboard1" transform="matrix(1.10938,0,0,0.64,1114,0)">
            <rect x="0" y="0" width="1280" height="800" style="fill:none;"/>
            <g transform="matrix(1.02725,0,0,1.02725,-35.749,-26.9524)">
                <g transform="matrix(1.06164,0,0,1.84024,-2208.77,416.755)">
                    <g transform="matrix(260,0,0,260,2144.57,107.651)">
                        <path d="M0.314,0.01C0.278,0.01 0.246,0.003 0.217,-0.012C0.188,-0.026 0.164,-0.046 0.146,-0.072C0.128,-0.098 0.117,-0.128 0.113,-0.162L0.113,-0.309C0.117,-0.343 0.128,-0.373 0.147,-0.399C0.165,-0.425 0.189,-0.445 0.218,-0.459C0.247,-0.473 0.279,-0.48 0.314,-0.48C0.357,-0.48 0.396,-0.469 0.431,-0.448C0.466,-0.426 0.493,-0.397 0.513,-0.36C0.533,-0.323 0.544,-0.281 0.544,-0.234C0.544,-0.188 0.534,-0.147 0.514,-0.11C0.494,-0.073 0.466,-0.044 0.431,-0.022C0.396,-0.001 0.357,0.01 0.314,0.01ZM0.071,-0L0.071,-0.708L0.141,-0.708L0.141,-0.355L0.127,-0.242L0.141,-0.126L0.141,-0L0.071,-0ZM0.302,-0.057C0.335,-0.057 0.364,-0.064 0.39,-0.079C0.415,-0.094 0.435,-0.116 0.449,-0.143C0.464,-0.169 0.471,-0.2 0.471,-0.235C0.471,-0.27 0.464,-0.301 0.449,-0.328C0.435,-0.355 0.415,-0.376 0.39,-0.391C0.365,-0.406 0.336,-0.414 0.303,-0.414C0.27,-0.414 0.242,-0.406 0.217,-0.391C0.192,-0.376 0.172,-0.355 0.158,-0.328C0.144,-0.301 0.137,-0.27 0.137,-0.235C0.137,-0.2 0.144,-0.169 0.158,-0.142C0.172,-0.115 0.191,-0.094 0.216,-0.079C0.241,-0.064 0.269,-0.057 0.302,-0.057Z" style="fill:white;fill-rule:nonzero;"/>
                    </g>
                    <g transform="matrix(260,0,0,260,2283.67,107.651)">
                        <path d="M0.288,0.01C0.241,0.01 0.198,-0.001 0.161,-0.022C0.124,-0.043 0.094,-0.073 0.073,-0.11C0.051,-0.147 0.04,-0.189 0.04,-0.236C0.04,-0.282 0.051,-0.323 0.072,-0.36C0.093,-0.397 0.122,-0.426 0.159,-0.448C0.195,-0.469 0.236,-0.48 0.282,-0.48C0.325,-0.48 0.363,-0.47 0.396,-0.451C0.429,-0.431 0.454,-0.404 0.473,-0.37C0.492,-0.336 0.502,-0.296 0.502,-0.252C0.502,-0.247 0.501,-0.241 0.501,-0.234C0.5,-0.227 0.499,-0.218 0.497,-0.209L0.09,-0.209L0.09,-0.269L0.459,-0.269L0.434,-0.247C0.434,-0.281 0.428,-0.311 0.416,-0.336C0.404,-0.361 0.386,-0.38 0.363,-0.394C0.34,-0.408 0.312,-0.415 0.28,-0.415C0.246,-0.415 0.216,-0.408 0.191,-0.393C0.165,-0.378 0.145,-0.357 0.131,-0.331C0.117,-0.305 0.11,-0.274 0.11,-0.238C0.11,-0.202 0.117,-0.17 0.132,-0.143C0.147,-0.115 0.168,-0.094 0.195,-0.079C0.222,-0.064 0.253,-0.056 0.289,-0.056C0.317,-0.056 0.343,-0.061 0.368,-0.072C0.392,-0.082 0.412,-0.097 0.429,-0.118L0.474,-0.072C0.452,-0.046 0.425,-0.025 0.392,-0.011C0.36,0.003 0.325,0.01 0.288,0.01Z" style="fill:white;fill-rule:nonzero;"/>
                    </g>
                    <g transform="matrix(260,0,0,260,2404.83,107.651)">
                        <path d="M0.14,-0L0.14,-0.55C0.14,-0.583 0.147,-0.612 0.162,-0.637C0.176,-0.662 0.196,-0.682 0.221,-0.696C0.247,-0.71 0.276,-0.717 0.309,-0.718C0.334,-0.717 0.357,-0.713 0.376,-0.704C0.395,-0.695 0.413,-0.683 0.429,-0.667L0.383,-0.621C0.372,-0.631 0.361,-0.639 0.349,-0.644C0.337,-0.649 0.324,-0.652 0.309,-0.652C0.278,-0.652 0.253,-0.643 0.236,-0.624C0.219,-0.606 0.211,-0.58 0.211,-0.548L0.211,-0L0.14,-0ZM0.022,-0.407L0.022,-0.47L0.368,-0.47L0.368,-0.407L0.022,-0.407Z" style="fill:white;fill-rule:nonzero;"/>
                    </g>
                    <g transform="matrix(260,0,0,260,2484.65,107.651)">
                        <path d="M0.284,0.01C0.238,0.01 0.197,-0.001 0.16,-0.023C0.123,-0.045 0.094,-0.074 0.073,-0.112C0.051,-0.149 0.04,-0.191 0.04,-0.237C0.04,-0.282 0.051,-0.323 0.073,-0.36C0.094,-0.397 0.123,-0.426 0.16,-0.448C0.197,-0.469 0.238,-0.48 0.284,-0.48C0.33,-0.48 0.371,-0.469 0.408,-0.448C0.445,-0.426 0.474,-0.397 0.496,-0.36C0.517,-0.323 0.528,-0.282 0.528,-0.237C0.528,-0.19 0.517,-0.148 0.496,-0.111C0.474,-0.074 0.445,-0.045 0.408,-0.023C0.371,-0.001 0.33,0.01 0.284,0.01ZM0.284,-0.058C0.317,-0.058 0.346,-0.065 0.372,-0.081C0.398,-0.096 0.418,-0.118 0.433,-0.145C0.448,-0.172 0.456,-0.203 0.456,-0.237C0.456,-0.271 0.448,-0.301 0.433,-0.327C0.418,-0.353 0.398,-0.374 0.372,-0.39C0.346,-0.405 0.317,-0.413 0.284,-0.413C0.251,-0.413 0.222,-0.405 0.196,-0.39C0.17,-0.374 0.15,-0.353 0.135,-0.327C0.12,-0.301 0.113,-0.271 0.113,-0.237C0.113,-0.202 0.12,-0.171 0.135,-0.145C0.15,-0.118 0.17,-0.096 0.196,-0.081C0.222,-0.065 0.251,-0.058 0.284,-0.058Z" style="fill:white;fill-rule:nonzero;"/>
                    </g>
                    <g transform="matrix(260,0,0,260,2619.33,107.651)">
                        <path d="M0.071,-0L0.071,-0.47L0.141,-0.47L0.141,-0L0.071,-0ZM0.141,-0.274L0.112,-0.287C0.112,-0.346 0.126,-0.393 0.155,-0.428C0.184,-0.463 0.224,-0.48 0.275,-0.48C0.298,-0.48 0.319,-0.476 0.339,-0.468C0.358,-0.459 0.376,-0.446 0.393,-0.428L0.347,-0.379C0.335,-0.391 0.323,-0.4 0.309,-0.406C0.296,-0.411 0.28,-0.414 0.263,-0.414C0.227,-0.414 0.198,-0.402 0.175,-0.378C0.152,-0.355 0.141,-0.32 0.141,-0.274Z" style="fill:white;fill-rule:nonzero;"/>
                    </g>
                    <g transform="matrix(260,0,0,260,2704.61,107.651)">
                        <path d="M0.288,0.01C0.241,0.01 0.198,-0.001 0.161,-0.022C0.124,-0.043 0.094,-0.073 0.073,-0.11C0.051,-0.147 0.04,-0.189 0.04,-0.236C0.04,-0.282 0.051,-0.323 0.072,-0.36C0.093,-0.397 0.122,-0.426 0.159,-0.448C0.195,-0.469 0.236,-0.48 0.282,-0.48C0.325,-0.48 0.363,-0.47 0.396,-0.451C0.429,-0.431 0.454,-0.404 0.473,-0.37C0.492,-0.336 0.502,-0.296 0.502,-0.252C0.502,-0.247 0.501,-0.241 0.501,-0.234C0.5,-0.227 0.499,-0.218 0.497,-0.209L0.09,-0.209L0.09,-0.269L0.459,-0.269L0.434,-0.247C0.434,-0.281 0.428,-0.311 0.416,-0.336C0.404,-0.361 0.386,-0.38 0.363,-0.394C0.34,-0.408 0.312,-0.415 0.28,-0.415C0.246,-0.415 0.216,-0.408 0.191,-0.393C0.165,-0.378 0.145,-0.357 0.131,-0.331C0.117,-0.305 0.11,-0.274 0.11,-0.238C0.11,-0.202 0.117,-0.17 0.132,-0.143C0.147,-0.115 0.168,-0.094 0.195,-0.079C0.222,-0.064 0.253,-0.056 0.289,-0.056C0.317,-0.056 0.343,-0.061 0.368,-0.072C0.392,-0.082 0.412,-0.097 0.429,-0.118L0.474,-0.072C0.452,-0.046 0.425,-0.025 0.392,-0.011C0.36,0.003 0.325,0.01 0.288,0.01Z" style="fill:white;fill-rule:nonzero;"/>
                    </g>
                    <g transform="matrix(260,0,0,260,2844.49,107.651)">
                    </g>
                </g>
                <g transform="matrix(16.2518,0,0,28.1708,-1637.35,-6782.76)">
                    <g transform="matrix(20.2506,0,0,20.2506,152.953,263.252)">
                        <path d="M0.217,-0.753C0.264,-0.753 0.273,-0.722 0.256,-0.682L0.218,-0.676C0.217,-0.669 0.217,-0.662 0.217,-0.655C0.217,-0.612 0.243,-0.577 0.296,-0.577C0.342,-0.577 0.379,-0.603 0.379,-0.664C0.379,-0.714 0.339,-0.773 0.243,-0.773C0.121,-0.773 0.065,-0.662 0.065,-0.523L0.065,-0.476L0.007,-0.476L0.007,-0.458L0.065,-0.458L0.065,-0.018L0.01,-0.018L0.01,-0L0.359,-0L0.359,-0.018L0.251,-0.018L0.251,-0.458L0.373,-0.458L0.373,-0.476L0.251,-0.476L0.171,-0.636C0.161,-0.656 0.157,-0.675 0.157,-0.69C0.157,-0.734 0.186,-0.753 0.217,-0.753Z" style="fill:white;fill-rule:nonzero;"/>
                    </g>
                    <g transform="matrix(20.2506,0,0,20.2506,152.953,263.252)">
                    </g>
                    <g transform="matrix(20.2506,0,0,20.2506,176.403,263.252)">
                    </g>
                    <text x="139.911px" y="263.252px" style="font-family:'AbrilFatface-Regular', 'Abril Fatface';font-size:20.251px;fill:white;">A<tspan x="159.413px 166.379px " y="263.252px 263.252px ">tr</tspan></text>
                </g>
            </g>
        </g>
    </g>
</svg>
